<?xml version="1.0" encoding="UTF-8" standalone="no"?>
<!DOCTYPE svg PUBLIC "-//W3C//DTD SVG 1.1//EN"
 "http://www.w3.org/Graphics/SVG/1.1/DTD/svg11.dtd">
<!-- Generated by graphviz version 5.0.0 (20220707.1540)
 -->
<!-- Title: dependencies Pages: 1 -->
<svg width="296pt" height="247pt"
 viewBox="0.00 0.00 296.00 246.80" xmlns="http://www.w3.org/2000/svg" xmlns:xlink="http://www.w3.org/1999/xlink">
<g id="graph0" class="graph" transform="scale(1 1) rotate(0) translate(4 242.8)">
<title>dependencies</title>
<polygon fill="white" stroke="transparent" points="-4,4 -4,-242.8 292,-242.8 292,4 -4,4"/>
<text text-anchor="middle" x="144" y="-8.2" font-family="sans-serif" font-size="14.00">dependencies</text>
<g id="clust1" class="cluster">
<title>cluster_ChatsModule</title>
<polygon fill="none" stroke="black" stroke-dasharray="1,5" points="8,-32.8 8,-230.8 280,-230.8 280,-32.8 8,-32.8"/>
</g>
<g id="clust4" class="cluster">
<title>cluster_ChatsModule_exports</title>
<polygon fill="none" stroke="black" points="81,-170.8 81,-222.8 191,-222.8 191,-170.8 81,-170.8"/>
</g>
<g id="clust6" class="cluster">
<title>cluster_ChatsModule_providers</title>
<polygon fill="none" stroke="black" points="132,-40.8 132,-92.8 272,-92.8 272,-40.8 132,-40.8"/>
</g>
<g id="clust3" class="cluster">
<title>cluster_ChatsModule_imports</title>
<polygon fill="none" stroke="black" points="16,-40.8 16,-92.8 124,-92.8 124,-40.8 16,-40.8"/>
</g>
<!-- UsersModule -->
<g id="node1" class="node">
<title>UsersModule</title>
<polygon fill="#8dd3c7" stroke="black" points="115.94,-84.8 112.94,-88.8 91.94,-88.8 88.94,-84.8 24.06,-84.8 24.06,-48.8 115.94,-48.8 115.94,-84.8"/>
<text text-anchor="middle" x="70" y="-62.6" font-family="Times,serif" font-size="14.00">UsersModule</text>
</g>
<!-- ChatsModule -->
<g id="node2" class="node">
<title>ChatsModule</title>
<polygon fill="#8dd3c7" stroke="black" points="181.94,-149.8 178.94,-153.8 157.94,-153.8 154.94,-149.8 90.06,-149.8 90.06,-113.8 181.94,-113.8 181.94,-149.8"/>
<text text-anchor="middle" x="136" y="-127.6" font-family="Times,serif" font-size="14.00">ChatsModule</text>
</g>
<!-- UsersModule&#45;&gt;ChatsModule -->
<g id="edge1" class="edge">
<title>UsersModule&#45;&gt;ChatsModule</title>
<path fill="none" stroke="black" d="M103,-84.91C103,-84.91 103,-103.79 103,-103.79"/>
<polygon fill="black" stroke="black" points="99.5,-103.79 103,-113.79 106.5,-103.79 99.5,-103.79"/>
</g>
<!-- ChatsService  -->
<g id="node3" class="node">
<title>ChatsService </title>
<polygon fill="#fb8072" stroke="black" points="182.87,-214.8 89.13,-214.8 89.13,-178.8 182.87,-178.8 182.87,-214.8"/>
<text text-anchor="middle" x="136" y="-192.6" font-family="Times,serif" font-size="14.00">ChatsService </text>
</g>
<!-- ChatsModule&#45;&gt;ChatsService  -->
<g id="edge2" class="edge">
<title>ChatsModule&#45;&gt;ChatsService </title>
<path fill="none" stroke="black" stroke-dasharray="5,2" d="M136,-149.91C136,-149.91 136,-168.79 136,-168.79"/>
<polygon fill="black" stroke="black" points="132.5,-168.79 136,-178.79 139.5,-168.79 132.5,-168.79"/>
</g>
<!-- ChatsService -->
<g id="node4" class="node">
<title>ChatsService</title>
<ellipse fill="#fdb462" stroke="black" cx="202" cy="-66.8" rx="61.98" ry="18"/>
<text text-anchor="middle" x="202" y="-62.6" font-family="Times,serif" font-size="14.00">ChatsService</text>
</g>
<!-- ChatsService&#45;&gt;ChatsModule -->
<g id="edge3" class="edge">
<title>ChatsService&#45;&gt;ChatsModule</title>
<path fill="none" stroke="black" d="M160.87,-80.27C160.87,-80.27 160.87,-103.66 160.87,-103.66"/>
<polygon fill="black" stroke="black" points="157.37,-103.66 160.87,-113.66 164.37,-103.66 157.37,-103.66"/>
</g>
</g>
</svg>
