<?xml version="1.0" encoding="UTF-8" standalone="no"?>
<!DOCTYPE svg PUBLIC "-//W3C//DTD SVG 1.1//EN"
 "http://www.w3.org/Graphics/SVG/1.1/DTD/svg11.dtd">
<!-- Generated by graphviz version 5.0.0 (20220707.1540)
 -->
<!-- Title: dependencies Pages: 1 -->
<svg width="627pt" height="174pt"
 viewBox="0.00 0.00 627.00 173.80" xmlns="http://www.w3.org/2000/svg" xmlns:xlink="http://www.w3.org/1999/xlink">
<g id="graph0" class="graph" transform="scale(1 1) rotate(0) translate(4 169.8)">
<title>dependencies</title>
<polygon fill="white" stroke="transparent" points="-4,4 -4,-169.8 623,-169.8 623,4 -4,4"/>
<text text-anchor="middle" x="309.5" y="-8.2" font-family="sans-serif" font-size="14.00">dependencies</text>
<g id="clust1" class="cluster">
<title>cluster_AppModule</title>
<polygon fill="none" stroke="black" stroke-dasharray="1,5" points="8,-32.8 8,-157.8 611,-157.8 611,-32.8 8,-32.8"/>
</g>
<g id="clust6" class="cluster">
<title>cluster_AppModule_providers</title>
<polygon fill="none" stroke="black" points="473,-40.8 473,-92.8 603,-92.8 603,-40.8 473,-40.8"/>
</g>
<g id="clust3" class="cluster">
<title>cluster_AppModule_imports</title>
<polygon fill="none" stroke="black" points="16,-40.8 16,-92.8 465,-92.8 465,-40.8 16,-40.8"/>
</g>
<!-- AuthModule -->
<g id="node1" class="node">
<title>AuthModule</title>
<polygon fill="#8dd3c7" stroke="black" points="456.55,-84.8 453.55,-88.8 432.55,-88.8 429.55,-84.8 369.45,-84.8 369.45,-48.8 456.55,-48.8 456.55,-84.8"/>
<text text-anchor="middle" x="413" y="-62.6" font-family="Times,serif" font-size="14.00">AuthModule</text>
</g>
<!-- AppModule -->
<g id="node5" class="node">
<title>AppModule</title>
<polygon fill="#8dd3c7" stroke="black" points="347.66,-149.8 344.66,-153.8 323.66,-153.8 320.66,-149.8 264.34,-149.8 264.34,-113.8 347.66,-113.8 347.66,-149.8"/>
<text text-anchor="middle" x="306" y="-127.6" font-family="Times,serif" font-size="14.00">AppModule</text>
</g>
<!-- AuthModule&#45;&gt;AppModule -->
<g id="edge1" class="edge">
<title>AuthModule&#45;&gt;AppModule</title>
<path fill="none" stroke="black" d="M413,-84.82C413,-102.17 413,-125.8 413,-125.8 413,-125.8 357.68,-125.8 357.68,-125.8"/>
<polygon fill="black" stroke="black" points="357.68,-122.3 347.68,-125.8 357.68,-129.3 357.68,-122.3"/>
</g>
<!-- ChatsModule -->
<g id="node2" class="node">
<title>ChatsModule</title>
<polygon fill="#8dd3c7" stroke="black" points="351.94,-84.8 348.94,-88.8 327.94,-88.8 324.94,-84.8 260.06,-84.8 260.06,-48.8 351.94,-48.8 351.94,-84.8"/>
<text text-anchor="middle" x="306" y="-62.6" font-family="Times,serif" font-size="14.00">ChatsModule</text>
</g>
<!-- ChatsModule&#45;&gt;AppModule -->
<g id="edge2" class="edge">
<title>ChatsModule&#45;&gt;AppModule</title>
<path fill="none" stroke="black" d="M306,-84.91C306,-84.91 306,-103.79 306,-103.79"/>
<polygon fill="black" stroke="black" points="302.5,-103.79 306,-113.79 309.5,-103.79 302.5,-103.79"/>
</g>
<!-- MessageModule -->
<g id="node3" class="node">
<title>MessageModule</title>
<polygon fill="#8dd3c7" stroke="black" points="242.04,-84.8 239.04,-88.8 218.04,-88.8 215.04,-84.8 133.96,-84.8 133.96,-48.8 242.04,-48.8 242.04,-84.8"/>
<text text-anchor="middle" x="188" y="-62.6" font-family="Times,serif" font-size="14.00">MessageModule</text>
</g>
<!-- MessageModule&#45;&gt;AppModule -->
<g id="edge3" class="edge">
<title>MessageModule&#45;&gt;AppModule</title>
<path fill="none" stroke="black" d="M188,-84.82C188,-102.17 188,-125.8 188,-125.8 188,-125.8 254.07,-125.8 254.07,-125.8"/>
<polygon fill="black" stroke="black" points="254.07,-129.3 264.07,-125.8 254.07,-122.3 254.07,-129.3"/>
</g>
<!-- UsersModule -->
<g id="node4" class="node">
<title>UsersModule</title>
<polygon fill="#8dd3c7" stroke="black" points="115.94,-84.8 112.94,-88.8 91.94,-88.8 88.94,-84.8 24.06,-84.8 24.06,-48.8 115.94,-48.8 115.94,-84.8"/>
<text text-anchor="middle" x="70" y="-62.6" font-family="Times,serif" font-size="14.00">UsersModule</text>
</g>
<!-- UsersModule&#45;&gt;AppModule -->
<g id="edge4" class="edge">
<title>UsersModule&#45;&gt;AppModule</title>
<path fill="none" stroke="black" d="M70,-85.08C70,-106.12 70,-137.8 70,-137.8 70,-137.8 254.08,-137.8 254.08,-137.8"/>
<polygon fill="black" stroke="black" points="254.08,-141.3 264.08,-137.8 254.08,-134.3 254.08,-141.3"/>
</g>
<!-- AppService -->
<g id="node6" class="node">
<title>AppService</title>
<ellipse fill="#fdb462" stroke="black" cx="538" cy="-66.8" rx="56.75" ry="18"/>
<text text-anchor="middle" x="538" y="-62.6" font-family="Times,serif" font-size="14.00">AppService</text>
</g>
<!-- AppService&#45;&gt;AppModule -->
<g id="edge5" class="edge">
<title>AppService&#45;&gt;AppModule</title>
<path fill="none" stroke="black" d="M538,-85.08C538,-106.12 538,-137.8 538,-137.8 538,-137.8 357.74,-137.8 357.74,-137.8"/>
<polygon fill="black" stroke="black" points="357.74,-134.3 347.74,-137.8 357.74,-141.3 357.74,-134.3"/>
</g>
</g>
</svg>
